# xmcd CD database file
#
# Track frame offsets:
#	150
#	12296
#	14778
#	27494
#	37554
#	56265
#	71083
#	84743
#	95808
#	108646
#	119005
#	123499
#	132391
#	136250
#	139927
#	159426
#	172515
#	185235
#	193115
#	203739
#
# Disc length: 2912 seconds
#
# Revision: 7
# Processed by: cddbd v1.5.2PL0 Copyright (c) Steve Scherf et al.
# Submitted via: CDex 1.51
#
DISCID=230b5e14
DTITLE=Various Artist - Chorales d'enfants  {Chants de Noël}  [CD 4-5]
DYEAR=1900
DGENRE=Chants de Noël
TTITLE0=Mainburger Kinderchor - Little drummer boy
TTITLE1=Les petits chanteurs de Noël - Les filles au printemps
TTITLE2=St-Petersburg Children's ChoirLe choeur des femmes d'Eugène Onegine
TTITLE3=Chorale du tsar Pierre Le Grand - Rivière de lune
TTITLE4=Chorale du tsar Pierre Le Grand - 3 romances
TTITLE5=Finchley Children's Music Group with City of Prague Philharmonic - In Memoriam - Les Choristes
TTITLE6=Chorale du tsar Pierre Le Grand - Le tocsin du sacrifice
TTITLE7=Maîtrise de la Cathédrale de Strasbourg - Heilige nacht
TTITLE8=Chorale du tsar Pierre Le Grand - En attendant l'orage
TTITLE9=Mainburger Kinderchor - Oh Tannenbaum
TTITLE10=Les petits chanteurs de Noël - Le sentier merveilleux
TTITLE11=Chorale du tsar Pierre Le Grand - It's nice here
TTITLE12=Les petits chanteurs de Noël - O sana in exelsis
TTITLE13=Les petits chanteurs de Noël - Gloria
TTITLE14=Les petits chanteurs de Noël - Et in terra pax hominibus
TTITLE15=Les petits chanteurs de Noël - Sanctus spiritus  (Gloria 12)
TTITLE16=Aaju Piita - Mikisuaraagama
TTITLE17=Maîtrise de la Cathédrale de Strasbourg - La marche des rois
TTITLE18=Chorale du tsar Pierre Le Grand - L'Éveil du Christ
TTITLE19=Chorale du tsar Pierre Le Grand - Arroganza
EXTD=
EXTT0=
EXTT1=
EXTT2=
EXTT3=
EXTT4=
EXTT5=
EXTT6=
EXTT7=
EXTT8=
EXTT9=
EXTT10=
EXTT11=
EXTT12=
EXTT13=
EXTT14=
EXTT15=
EXTT16=
EXTT17=
EXTT18=
EXTT19=
PLAYORDER=
